<?xml version="1.0" encoding="utf-8"?>
<!-- Generator: Adobe Illustrator 15.0.0, SVG Export Plug-In . SVG Version: 6.00 Build 0)  -->
<!DOCTYPE svg PUBLIC "-//W3C//DTD SVG 1.1//EN" "http://www.w3.org/Graphics/SVG/1.1/DTD/svg11.dtd">
<svg version="1.1" id="Layer_1" xmlns="http://www.w3.org/2000/svg" xmlns:xlink="http://www.w3.org/1999/xlink" x="0px" y="0px"
	 width="660px" height="440px" viewBox="0 0 660 440" enable-background="new 0 0 660 440" xml:space="preserve">
<polygon fill="#EBC37D" points="513,352.984 584,352.984 602,254 495,254 "/>
<path fill="#508C9B" d="M593.667,219.334c0,0,14.001-26.668,27.334-40.334s32.666-44.667,34.666-50c0,0-42.334,16.667-53.667,37.667
	s-19.924,40-19.924,40S584.999,114.333,602,98c0,0-52.874,40-50.604,111.667c0,0-12.712-79.333-97.054-59.333
	c0,0,61.499,9.333,74.745,53.333c0,0-15.258-22-71.006-12c0,0,35.897,9.333,55.241,30L593.667,219.334z"/>
<rect x="470" y="219" fill="#EBC37D" width="157" height="35"/>
<rect x="470" y="219" fill="#CAA054" width="157" height="5"/>
<polygon fill="#CAA054" points="495.909,259 601.091,259 602,254 495,254 "/>
<g>
	<path fill="none" stroke="#CDCDCD" stroke-width="1.5" stroke-miterlimit="10" d="M560.896,75.723c0,0-50.539,8.249-74.323,73.19"
		/>
	<path fill="#CDCDCD" d="M559.577,76.558c0.003-0.002,10.623-0.718,16.124-0.63c5.504,0.088,16.569-2.367,18.72-12.966
		c1.09-5.363-2.518-10.816-7.812-11.585c-6.284-0.914-12.647,2.38-17.035,6.646c-3.113,3.025-5.817,6.394-7.328,10.507
		C561.954,69.323,560.17,76.516,559.577,76.558z"/>
	<path fill="#CDCDCD" d="M546.629,80.59c5.798-0.548,11.676-0.881,17.499-0.907c6.118-0.025,13.076,2.368,15.87,8.383
		c1.571,3.385-0.532,7.424-3.567,9.023c-3.273,1.726-7.469,0.905-10.351-1.305c-4.071-3.125-7.281-7.357-11.753-9.962
		c-4.206-2.45-8.989-2.484-13.694-1.812L546.629,80.59z"/>
	<path fill="#CDCDCD" d="M519.81,98.172c0,0,10.341-18.447,4.151-36.562c-2.371-6.939-8.18-16.933-17.172-14.372
		c-4.038,1.151-7.92,6.438-6.817,10.718c0.919,3.554,3.694,12.378,8.908,22.773c5.212,10.393,5.443,14.272,5.504,16.171
		c0.06,1.899,0.571,4.541,2.974,4.64L519.81,98.172z"/>
	<path fill="#CDCDCD" d="M520.399,97.364c0,0,11.773-6.684,21.489-5.588c9.717,1.097,23.094,5.065,24.174,13.684
		c1.632,13.044-13.892,9.48-21.359,6.688c-3.673-1.374-7.375-3.078-10.813-4.962c-12.591-6.9-18.423-5.167-18.423-5.167
		L520.399,97.364z"/>
	<path fill="#CDCDCD" d="M496.089,128.025c0,0,4.146-23.075-1.394-37.831c-5.543-14.756-14.437-21.232-21.411-17.034
		c-6.974,4.2-5.755,14.984-1.458,21.824c4.299,6.839,8.778,9.895,12.619,15.166c3.838,5.269,8.904,19.266,8.386,22.807
		L496.089,128.025z"/>
	<path fill="#CDCDCD" d="M494.514,130.935c0.921-1.264,5.939-4.373,7.189-5.229c3.737-2.558,7.748-4.786,11.993-6.378
		c9.513-3.568,21.633-3.203,31.13,0.38c2.64,0.996,5.058,2.485,6.789,4.751c2.419,3.17,3.824,6.538,3.186,10.531
		c-1.686,10.523-15.246,12.195-24.531,6.258c-9.285-5.936-27.73-12.563-36.359-7.508
		C493.91,133.742,494.514,130.936,494.514,130.935z"/>
	<path fill="#CDCDCD" d="M540.466,83.113l5.54-1.946c0,0,10.936-9.354,10.478-22.884c-0.203-6.001-2.432-11.399-6.454-15.792
		c-2.721-2.97-6.041-4.906-10.109-3.476c-4.444,1.559-6.023,6.465-5.157,10.875c1.796,9.143,3.939,9.879,4.928,16.166
		C540.681,72.34,541.055,80.038,540.466,83.113"/>
</g>
<polygon fill="#CDCDCD" points="585.455,360 584,352 513,352 511.545,360 "/>
<path fill="#CDCDCD" d="M17.688,384.049l-8.839,8.837c0,0-4.335,5.099,4.418,5.099h535.158c8.753,0,4.42-5.099,4.42-5.099
	l-8.839-8.837H17.688z"/>
<path fill="#E1E1E1" d="M69.699,301.018L6.384,371.98c0,0-8.072,7.648,5.1,7.648c13.173,0,534.138,0,534.138,0
	s12.748,1.699,6.799-5.949s-62.04-72.662-62.04-72.662H69.699z"/>
<path fill="#4BAAAA" d="M490.38,47.333c0-5.184-4.164-9.348-9.348-9.348H79.049c-5.185,0-9.35,4.165-9.35,9.348v253.685H490.38
	V47.333z"/>
<path fill="#4BAAAA" d="M6.81,379.798l21.672,8.33c0,0,15.723,2.549,28.896,2.549h446.006c13.173,0,28.896-2.549,28.896-2.549
	l21.672-8.33H6.81z"/>
<polygon fill="#CDCDCD" points="51.003,352.433 85.848,307.816 473.808,307.816 509.076,352.433 "/>
<path fill="#CDCDCD" d="M216.3,361.102c0,0,2.805-3.994,8.754-3.994c5.95,0,112.776,0,112.776,0s4.249-0.596,5.949,4.25
	c1.699,4.843,2.806,10.198,2.806,10.198s1.443,4.843-5.355,4.843s-120.68,0-120.68,0s-7.395,0-6.544-4.504
	C214.855,367.305,216.3,361.102,216.3,361.102z"/>
<rect x="82.022" y="58.807" fill="#FAFAFA" width="99.009" height="72.493"/>
<rect x="82.022" y="131.385" fill="#CDCDCD" width="99.009" height="72.492"/>
<rect x="82.022" y="203.877" fill="#FAFAFA" width="99.009" height="72.494"/>
<rect x="181.031" y="58.807" fill="#E1E1E1" width="99.009" height="72.493"/>
<rect x="181.031" y="131.385" fill="#FAFAFA" width="99.009" height="72.492"/>
<rect x="181.031" y="203.877" fill="#CDCDCD" width="99.009" height="72.494"/>
<rect x="280.38" y="58.807" fill="#FAFAFA" width="99.009" height="72.493"/>
<rect x="280.38" y="131.385" fill="#E1E1E1" width="99.009" height="72.492"/>
<rect x="280.38" y="203.877" fill="#FAFAFA" width="99.009" height="72.494"/>
<rect x="379.389" y="58.807" fill="#CDCDCD" width="99.008" height="72.493"/>
<rect x="379.389" y="131.385" fill="#FAFAFA" width="99.008" height="72.492"/>
<rect x="379.389" y="203.877" fill="#E1E1E1" width="99.008" height="72.494"/>
<rect x="69.699" y="276.371" fill="#4BAAAA" width="420.681" height="24.646"/>
<g>
	<g>
		<g>
			<polygon fill="#508C9B" points="67.575,348.185 71.569,342.576 99.954,342.576 96.47,348.185 			"/>
		</g>
		<g>
			<polygon fill="#508C9B" points="103.269,348.185 106.582,342.576 134.8,342.576 131.994,348.185 			"/>
		</g>
		<g>
			<polygon fill="#508C9B" points="140.408,348.185 143.042,342.576 171.683,342.576 169.558,348.185 			"/>
		</g>
		<g>
			<polygon fill="#508C9B" points="176.782,348.185 178.736,342.576 372.249,342.576 373.523,348.185 			"/>
		</g>
		<g>
			<polygon fill="#508C9B" points="381.174,348.185 379.389,342.576 406.669,342.576 409.134,348.185 			"/>
		</g>
		<g>
			<polygon fill="#508C9B" points="417.207,348.185 415.933,345.38 442.023,345.38 440.409,342.576 461.569,342.576 463.354,345.38 
				490.89,345.38 492.93,348.185 			"/>
		</g>
		<g>
			<polygon fill="#508C9B" points="487.321,340.45 483.751,335.436 440.323,335.436 443.042,340.45 			"/>
		</g>
		<g>
			<polygon fill="#508C9B" points="434.715,340.45 432.08,335.436 403.44,335.011 405.818,340.45 			"/>
		</g>
		<g>
			<polygon fill="#508C9B" points="371.061,340.45 369.359,335.011 396.046,335.011 398.17,340.45 			"/>
		</g>
		<g>
			<polygon fill="#508C9B" points="362.901,340.45 361.456,335.436 334.517,335.436 335.45,340.45 			"/>
		</g>
		<g>
			<polygon fill="#508C9B" points="326.951,340.45 326.188,335.436 299.162,335.011 299.586,340.45 			"/>
		</g>
		<g>
			<polygon fill="#508C9B" points="292.958,340.45 292.702,335.011 264.573,335.011 264.573,340.45 			"/>
		</g>
		<g>
			<polygon fill="#508C9B" points="257.18,340.45 257.604,335.011 231.599,335.011 230.492,340.45 			"/>
		</g>
		<g>
			<polygon fill="#508C9B" points="221.484,340.45 222.589,335.011 195.902,335.011 193.778,340.45 			"/>
		</g>
		<g>
			<polygon fill="#508C9B" points="185.28,340.45 187.065,335.011 160.464,335.011 158.171,340.45 			"/>
		</g>
		<g>
			<polygon fill="#508C9B" points="148.057,340.45 150.436,335.097 77.008,335.011 73.099,340.45 			"/>
		</g>
		<g>
			<polygon fill="#508C9B" points="78.283,333.227 82.362,327.532 142.617,327.532 139.473,333.227 			"/>
		</g>
		<g>
			<polygon fill="#508C9B" points="83.468,326.003 87.121,320.904 128.425,320.904 125.45,326.003 			"/>
		</g>
		<g>
			<polygon fill="#508C9B" points="88.227,319.288 91.711,314.529 117.292,314.529 114.317,319.288 			"/>
		</g>
		<g>
			<polygon fill="#508C9B" points="92.646,313.169 94.6,310.45 119.756,310.45 118.142,313.169 			"/>
		</g>
		<g>
			<polygon fill="#508C9B" points="122.561,319.288 125.364,314.529 151.796,314.529 149.245,319.288 			"/>
		</g>
		<g>
			<polygon fill="#508C9B" points="133.693,326.003 136.157,320.904 162.928,320.904 160.89,326.003 			"/>
		</g>
		<g>
			<polygon fill="#508C9B" points="150.097,333.227 152.73,327.532 179.841,327.532 178.142,333.227 			"/>
		</g>
		<g>
			<polygon fill="#508C9B" points="167.688,326.003 169.558,320.904 195.902,320.904 194.288,326.003 			"/>
		</g>
		<g>
			<polygon fill="#508C9B" points="156.044,319.288 158.171,314.529 183.751,314.529 182.305,319.288 			"/>
		</g>
		<g>
			<polygon fill="#508C9B" points="160.464,313.169 161.738,310.45 187.065,310.45 186.214,313.169 			"/>
		</g>
		<g>
			<polygon fill="#508C9B" points="188.17,319.288 189.784,314.529 215.79,314.529 214.685,319.288 			"/>
		</g>
		<g>
			<polygon fill="#508C9B" points="184.94,333.227 186.64,327.532 213.496,327.532 212.306,333.227 			"/>
		</g>
		<g>
			<polygon fill="#508C9B" points="201.003,326.003 202.448,320.904 229.048,320.904 228.198,326.003 			"/>
		</g>
		<g>
			<polygon fill="#508C9B" points="220.974,319.288 222.078,314.529 247.405,314.529 247.065,319.288 			"/>
		</g>
		<g>
			<polygon fill="#508C9B" points="194.203,313.169 195.054,310.45 218.34,310.45 217.659,313.169 			"/>
		</g>
		<g>
			<polygon fill="#508C9B" points="224.544,313.169 225.054,310.45 250.72,310.45 250.295,313.169 			"/>
		</g>
		<g>
			<polygon fill="#508C9B" points="234.572,326.003 235.592,320.904 261.513,320.904 261.003,326.003 			"/>
		</g>
		<g>
			<polygon fill="#508C9B" points="220.295,327.532 219.021,333.227 247.065,333.227 247.405,327.532 			"/>
		</g>
		<g>
			<polygon fill="#508C9B" points="253.949,327.532 253.523,333.227 281.061,333.227 281.061,327.532 			"/>
		</g>
		<g>
			<polygon fill="#508C9B" points="253.523,319.288 254.119,314.529 279.87,314.529 279.87,319.288 			"/>
		</g>
		<g>
			<polygon fill="#508C9B" points="268.142,326.003 268.567,320.904 294.657,320.904 294.657,326.003 			"/>
		</g>
		<g>
			<polygon fill="#508C9B" points="269.842,313.169 269.842,310.45 294.657,310.45 295.082,313.169 			"/>
		</g>
		<g>
			<polygon fill="#508C9B" points="286.245,314.529 286.245,319.288 312.589,319.288 311.909,314.529 			"/>
		</g>
		<g>
			<polygon fill="#508C9B" points="301.542,313.169 301.116,310.45 326.442,310.45 326.782,313.169 			"/>
		</g>
		<g>
			<polygon fill="#508C9B" points="301.116,320.904 301.542,326.003 328.991,326.003 328.228,320.904 			"/>
		</g>
		<g>
			<polygon fill="#508C9B" points="287.519,327.532 288.112,333.227 315.819,333.227 315.14,327.532 			"/>
		</g>
		<g>
			<polygon fill="#508C9B" points="321.684,327.532 348.709,327.532 349.984,333.227 322.788,333.227 			"/>
		</g>
		<g>
			<polygon fill="#508C9B" points="319.048,319.288 318.453,314.529 344.034,314.529 345.224,319.288 			"/>
		</g>
		<g>
			<polygon fill="#508C9B" points="333.921,313.169 333.241,310.45 358.227,310.45 359.161,313.169 			"/>
		</g>
		<g>
			<polygon fill="#508C9B" points="333.921,320.904 335.025,326.003 362.307,326.003 361.201,320.904 			"/>
		</g>
		<g>
			<polygon fill="#508C9B" points="355.253,327.532 356.526,333.227 385.082,333.227 382.873,327.532 			"/>
		</g>
		<g>
			<polygon fill="#508C9B" points="351.938,319.288 350.747,314.529 375.734,314.529 377.943,319.288 			"/>
		</g>
		<g>
			<polygon fill="#508C9B" points="367.234,320.904 368.85,326.003 395.451,326.003 393.495,320.904 			"/>
		</g>
		<g>
			<polygon fill="#508C9B" points="383.297,314.529 385.082,319.288 410.918,319.288 408.794,314.529 			"/>
		</g>
		<g>
			<polygon fill="#508C9B" points="400.294,320.904 402.25,326.003 429.616,326.003 426.726,320.904 			"/>
		</g>
		<g>
			<polygon fill="#508C9B" points="388.906,327.532 390.776,333.227 419.077,333.227 416.271,327.532 			"/>
		</g>
		<g>
			<polygon fill="#508C9B" points="424.941,327.532 428,333.227 482.306,333.227 478.396,327.532 			"/>
		</g>
		<g>
			<polygon fill="#508C9B" points="438.028,326.003 435.225,320.904 473.298,320.904 476.952,326.003 			"/>
		</g>
		<g>
			<polygon fill="#508C9B" points="419.077,319.288 416.697,314.529 468.708,314.529 472.193,319.288 			"/>
		</g>
		<g>
			<polygon fill="#508C9B" points="443.213,313.169 441.514,310.45 465.818,310.45 467.773,313.169 			"/>
		</g>
		<g>
			<polygon fill="#508C9B" points="435.225,313.169 410.918,313.169 409.134,310.45 432.93,310.45 			"/>
		</g>
		<g>
			<polygon fill="#508C9B" points="403.44,313.169 402.25,310.45 377.179,310.45 377.943,313.169 			"/>
		</g>
	</g>
</g>
</svg>
