<?xml version="1.0" encoding="utf-8"?>
<!-- Generator: Adobe Illustrator 24.3.0, SVG Export Plug-In . SVG Version: 6.00 Build 0)  -->
<svg version="1.1" id="Layer_1" xmlns="http://www.w3.org/2000/svg" xmlns:xlink="http://www.w3.org/1999/xlink" x="0px" y="0px"
	 viewBox="0 0 1683.7 965.1" style="enable-background:new 0 0 1683.7 965.1;" xml:space="preserve">
<style type="text/css">
	.st0{fill:url(#Path_6762_1_);}
</style>
<linearGradient id="Path_6762_1_" gradientUnits="userSpaceOnUse" x1="934.3356" y1="-1.8702" x2="934.3356" y2="963.2753" gradientTransform="matrix(1 0 0 -1 0 963.2753)">
	<stop  offset="0" style="stop-color:#69B9B9;stop-opacity:0"/>
	<stop  offset="1" style="stop-color:#69B9B9;stop-opacity:0.5"/>
</linearGradient>
<path id="Path_6762" class="st0" d="M240.4,177.6c-0.6,0.6-1.2,1.2-1.8,1.8c-37.4,37.5-64.4,110.4-49.2,161.8
	c5.6,18.9,16.9,40.7,30.1,55.4c86,96,282,24,434,50s236.2,120.4,267.7,199c31.6,78.7,20.9,331,387.6,319
	c92.3-3,188.9-27.3,259.1-90.5c47.4-42.7,76.1-98.6,94.6-158.6c11.1-36.1,14-78.3,19.3-115.8c1.7-11.6,2.3-22.2,1.3-33.8
	c-3.4-39.2-1.9-79.3-13.7-117.3c-14.7-47.2-38.4-97-66.1-137.7c-37.5-55.1-94.9-99-148.9-136.9c-73.8-51.8-159.7-81-245.1-107.5
	c-72.3-22.4-144.3-33.9-218.9-45.5C940.2,13.4,889.7,6.9,839,3.2C755.9-2.9,672.1-1,590.2,15.1c-60.5,11.8-119.3,31-175.9,55.2
	c-39,16.7-77.6,35.3-113.4,58.3C278.9,142.7,258.9,159.2,240.4,177.6z"/>
</svg>
