<?xml version="1.0" encoding="utf-8"?>
<!-- Generator: Adobe Illustrator 15.0.0, SVG Export Plug-In . SVG Version: 6.00 Build 0)  -->
<!DOCTYPE svg PUBLIC "-//W3C//DTD SVG 1.1//EN" "http://www.w3.org/Graphics/SVG/1.1/DTD/svg11.dtd">
<svg version="1.1" id="Layer_1" xmlns="http://www.w3.org/2000/svg" xmlns:xlink="http://www.w3.org/1999/xlink" x="0px" y="0px"
	 width="660px" height="440px" viewBox="0 0 660 440" enable-background="new 0 0 660 440" xml:space="preserve">
<path fill="#508C9B" d="M523.335,326.003c0,0-3.501-1.335,4.833-0.835s56.999-1.166,54.166-32.834c0,0-27.666,19.166-45.833,19.833
	c0,0-13.334-0.666,0.666-4.833s51.833-9.498,53.25-48.499l-58.916,7.332c0,0-4.668,19.333-10.834,32.333c0,0-2,6.667-1.333-7
	s6.833-24.167,6.833-24.167L497.001,266c0,0-2.622,24.176,5.5,41.333c0,0,5.25,12.168-3.417,1.334S486,288.5,486,288.5V382
	l44.583-0.125c0,0,21.708-3.902,30.958-27.107c0,0-16.021,9.514-44.521-12.236c0,0-3.51-1.766-0.01-3.516
	c0,0,0.162-2.009,6.995-0.008s62.832,26.331,63.498-23.003C587.504,316.005,573.668,341.67,523.335,326.003z M546.822,292.913
	c3.136-2.115,6.586-4.917,10.515-5.157c4.05-0.248,6.159,2.278,2.913,5.494l-0.5,0.25c-2.676,1.125-5.098,3.392-7.766,4.681
	c-2.103,1.017-7.126,3.792-9.57,2.564C538.271,298.663,545.159,294.035,546.822,292.913z M511.907,301.707
	c-3.104,0.492-3.548-3.142-3.407-5.457l0.25,0.25c-0.653-2.99,1.637-12.082,5.697-7.431
	C516.736,291.691,516.418,300.993,511.907,301.707z M564,337.75c-4.916,2.562-7.833-3.422-1.993-5.071
	c4.997-1.411,4.604,2.385,1.743,5.071H564z"/>
<path fill="#CDCDCD" d="M488.5,330.75l-3,1.75L473,398c15.123,0,30.304,0.34,45.416-0.092c4.403-0.126,17.334,1.525,17.334-5.908
	c0-4.5-9.5-15.25-23.25-11.5h-24V330.75"/>
<g>
	<path fill="none" stroke="#69B9B9" stroke-width="1.5" stroke-miterlimit="10" d="M65,246.334c0,0,36,36.416,17,102.916"/>
	<path fill="#69B9B9" d="M65.577,247.785c-0.002-0.002-8.167-6.833-12.667-10c-4.5-3.167-12-11.667-7.5-21.5
		c2.278-4.978,8.403-7.262,13.135-4.768c5.618,2.961,8.824,9.37,9.86,15.4c0.735,4.278,0.938,8.594-0.261,12.808
		C67.912,240.538,65.121,247.403,65.577,247.785z"/>
	<path fill="#69B9B9" d="M73.669,258.667c-4.364-3.855-8.918-7.585-13.612-11.034c-4.932-3.622-11.965-5.782-17.764-2.564
		c-3.263,1.812-3.938,6.315-2.427,9.395c1.63,3.322,5.504,5.128,9.135,5.037c5.13-0.128,10.217-1.661,15.365-1.135
		c4.843,0.495,8.731,3.283,12.139,6.597L73.669,258.667z"/>
	<path fill="#69B9B9" d="M85,288.667c0,0,2.5-21,18.167-32c6-4.213,16.579-8.873,22.341-1.51c2.587,3.308,2.614,9.866-0.799,12.677
		c-2.833,2.333-10.271,7.832-20.604,13.166s-12.802,8.334-13.969,9.834s-3.135,3.334-5.135,2V288.667z"/>
	<path fill="#69B9B9" d="M85,287.667c0,0-5.583-12.334-14.083-17.167s-21.65-9.499-27.596-3.166
		c-8.998,9.584,5.648,15.841,13.328,17.978c3.78,1.052,7.775,1.854,11.664,2.355c14.24,1.833,17.935,6.667,17.935,6.667L85,287.667z
		"/>
	<path fill="#69B9B9" d="M86.603,326.763c0,0,10.23-21.095,23.397-29.762s24.167-8.667,27.333-1.167s-4.167,15.5-11.667,18.5
		s-12.921,2.833-19.127,4.833S88,329.5,86.333,332.667L86.603,326.763z"/>
	<path fill="#69B9B9" d="M86.165,330.042c0-1.563-2.228-7.03-2.735-8.458c-1.516-4.268-3.446-8.43-5.94-12.216
		c-5.591-8.484-15.602-15.323-25.39-18.017c-2.72-0.749-5.551-0.97-8.284-0.155c-3.821,1.139-6.94,3.033-8.774,6.638
		c-4.833,9.5,5.146,18.833,16.146,19.5S81,323.5,85,332.667C85,332.667,86.165,330.043,86.165,330.042z"/>
	<path fill="#69B9B9" d="M75.5,353.334c0,0-3.622-21.501-12.394-27.667s-17.772-4.667-21.439,0s-2,17.334,9.667,21.667
		s16.187,8.333,17.26,9.833L75.5,353.334z"/>
	<path fill="#69B9B9" d="M59.716,362.334c0,0-9.018-11.333-19.783-9.333c-9.493,1.764-11.533,14.308-4.899,20.342
		c2.251,2.048,5.541,4.296,8.413,5.324L59.716,362.334z"/>
	<path fill="#69B9B9" d="M77.167,264.334l-3.333-4.834c0,0-3.333-13.999,5-24.666c3.697-4.732,8.676-7.784,14.515-8.968
		c3.948-0.8,7.771-0.409,10.218,3.14c2.674,3.877,1.064,8.773-2.232,11.828c-6.833,6.333-9,5.666-13.5,10.166
		S78.5,261.501,77.167,264.334"/>
</g>
<g>
	<path fill="none" stroke="#CDCDCD" stroke-width="1.5" stroke-miterlimit="10" d="M554.893,41.835c0,0-9.182,50.377-74.553,72.956"
		/>
	<path fill="#CDCDCD" d="M554.033,43.139c0.002-0.003,0.914-10.608,0.928-16.11c0.014-5.504,2.674-16.522,13.311-18.477
		c5.383-0.989,10.768,2.718,11.439,8.025c0.797,6.3-2.614,12.602-6.961,16.908c-3.082,3.058-6.5,5.699-10.641,7.133
		C561.311,40.896,554.086,42.547,554.033,43.139z"/>
	<path fill="#CDCDCD" d="M549.762,56.01c0.655-5.786,1.098-11.657,1.231-17.479c0.138-6.117-2.126-13.117-8.089-16.022
		c-3.355-1.634-7.433,0.396-9.088,3.399c-1.785,3.242-1.043,7.451,1.113,10.373c3.049,4.129,7.222,7.416,9.743,11.936
		c2.372,4.25,2.317,9.034,1.559,13.727L549.762,56.01z"/>
	<path fill="#CDCDCD" d="M531.687,82.5c0,0,18.636-9.998,36.632-3.475c6.895,2.5,16.779,8.492,14.053,17.436
		c-1.227,4.016-6.584,7.799-10.843,6.618c-3.536-0.984-12.308-3.922-22.604-9.328c-10.295-5.403-14.169-5.706-16.066-5.802
		c-1.898-0.096-4.529-0.656-4.584-3.06L531.687,82.5z"/>
	<path fill="#CDCDCD" d="M532.506,81.925c0,0,6.9-11.648,5.984-21.383c-0.917-9.735-4.637-23.184-13.234-24.422
		c-13.012-1.873-9.736,13.713-7.082,21.23c1.306,3.698,2.94,7.432,4.761,10.904c6.666,12.717,4.825,18.516,4.825,18.516
		L532.506,81.925z"/>
	<path fill="#CDCDCD" d="M501.4,105.664c0,0,23.147-3.719,37.799,2.094c14.651,5.814,20.961,14.826,16.635,21.723
		c-4.328,6.895-15.088,5.477-21.848,1.053c-6.759-4.424-9.73-8.959-14.93-12.896c-5.197-3.936-19.098-9.26-22.647-8.807
		L501.4,105.664z"/>
	<path fill="#CDCDCD" d="M498.462,107.186c1.28-0.898,4.481-5.857,5.36-7.092c2.626-3.69,4.929-7.658,6.599-11.874
		c3.743-9.445,3.603-21.569,0.196-31.131c-0.947-2.658-2.391-5.104-4.625-6.876c-3.125-2.478-6.466-3.945-10.471-3.38
		c-10.553,1.49-12.475,15.018-6.711,24.411c5.763,9.394,12.048,27.958,6.834,36.492
		C495.645,107.736,498.461,107.186,498.462,107.186z"/>
	<path fill="#CDCDCD" d="M547.126,62.125l2.048-5.503c0,0,9.555-10.76,23.074-10.052c5.996,0.313,11.352,2.642,15.67,6.745
		c2.92,2.775,4.793,6.131,3.289,10.172c-1.642,4.414-6.576,5.903-10.969,4.955c-9.107-1.965-9.805-4.122-16.071-5.227
		C557.9,62.111,550.211,61.593,547.126,62.125"/>
</g>
<path fill="#FAFAFA" d="M473,391c15.123,0,30.304,0.34,45.416-0.092c4.403-0.126,17.334,1.525,17.334-5.908
	c0-4.5-9.5-15.25-23.25-11.5c0,0,16.75-3.5,14.5-10s-16.977-4.433-36,3.25c0,0,16.25-22,18.75-36.75c0,0,7.5-21.5-21.25-6.25
	l-3,1.75L473,391z"/>
<path fill="#CDCDCD" d="M488.5,387.5c0,5.522-4.478,10-10,10h-180c-5.523,0-10-4.478-10-10v-335c0-5.523,4.477-10,10-10h180
	c5.522,0,10,4.477,10,10V387.5z"/>
<path fill="#4BAAAA" d="M488.5,380.5c0,5.522-4.478,10-10,10h-180c-5.523,0-10-4.478-10-10v-335c0-5.523,4.477-10,10-10h180
	c5.522,0,10,4.477,10,10V380.5z"/>
<path fill="#E1E1E1" d="M477.5,365.5c0,5.522-4.478,10-10,10h-157c-5.523,0-10-4.478-10-10v-305c0-5.523,4.477-10,10-10h157
	c5.522,0,10,4.477,10,10V365.5z"/>
<path fill="#CDCDCD" d="M467.5,50.5h-157c-5.523,0-10,4.477-10,10v119.193l177,148.452V60.5C477.5,54.977,473.022,50.5,467.5,50.5z"
	/>
<path fill="#4BAAAA" d="M436.488,43.884c0.002-0.001,0.012-0.009,0.012-0.009c0-0.326-0.107-0.117-0.276-0.373
	C435.877,42.905,435.239,43,434.5,43h-0.25H343.5h-0.25c-0.507,0-0.938-0.305-1.263,0.006c-0.438,0.332-0.737,0.556-0.737,1.119
	c0,0,0.052-0.084,0.127-0.025c0,0.008-0.002-0.046-0.002-0.038l0.489,0.327c3.276,2.574,18.821,15.272,20.386,16.501
	C364,62.266,365,63,365,63h1h46h0.75c0,0,1-0.75,2.75-2.125c1.361-1.069,13.309-10.707,18.551-14.825l2.449-1.925
	C436.5,44.085,436.49,43.923,436.488,43.884z"/>
<path fill="#CDCDCD" d="M412.5,55c0,0.829-0.672,1.5-1.5,1.5h-44c-0.828,0-1.5-0.671-1.5-1.5l0,0c0-0.829,0.672-1.5,1.5-1.5h44
	C411.828,53.5,412.5,54.171,412.5,55L412.5,55z"/>
<path fill="#FAFAFA" d="M593,249c0,11.046-8.954,20-20,20H333c-11.046,0-20-8.954-20-20V134c0-11.046,8.954-20,20-20h240
	c11.046,0,20,8.954,20,20V249z"/>
<g>
	<path fill="#4BAAAA" d="M575.5,144.836c0-0.453-0.367-0.82-0.819-0.82H456.319c-0.452,0-0.819,0.367-0.819,0.82v0.327
		c0,0.454,0.367,0.82,0.819,0.82h118.361c0.452,0,0.819-0.366,0.819-0.82V144.836z"/>
	<path fill="#4BAAAA" d="M575.5,159.836c0-0.453-0.367-0.82-0.819-0.82H456.319c-0.452,0-0.819,0.367-0.819,0.82v0.327
		c0,0.454,0.367,0.82,0.819,0.82h118.361c0.452,0,0.819-0.366,0.819-0.82V159.836z"/>
	<path fill="#4BAAAA" d="M575.5,175.836c0-0.453-0.367-0.82-0.819-0.82H456.319c-0.452,0-0.819,0.367-0.819,0.82v0.327
		c0,0.454,0.367,0.82,0.819,0.82h118.361c0.452,0,0.819-0.366,0.819-0.82V175.836z"/>
	<path fill="#4BAAAA" d="M575.5,205.836c0-0.453-0.367-0.82-0.819-0.82H456.319c-0.452,0-0.819,0.367-0.819,0.82v0.327
		c0,0.454,0.367,0.82,0.819,0.82h118.361c0.452,0,0.819-0.366,0.819-0.82V205.836z"/>
	<path fill="#4BAAAA" d="M575.5,236.837c0-0.453-0.367-0.82-0.819-0.82H456.319c-0.452,0-0.819,0.367-0.819,0.82v0.326
		c0,0.454,0.367,0.82,0.819,0.82h118.361c0.452,0,0.819-0.366,0.819-0.82V236.837z"/>
	<path fill="#4BAAAA" d="M575.5,190.836c0-0.453-0.367-0.82-0.819-0.82H456.319c-0.452,0-0.819,0.367-0.819,0.82v0.327
		c0,0.454,0.367,0.82,0.819,0.82h118.361c0.452,0,0.819-0.366,0.819-0.82V190.836z"/>
	<path fill="#4BAAAA" d="M575.5,221.503c0-0.452-0.367-0.82-0.819-0.82H456.319c-0.452,0-0.819,0.368-0.819,0.82v0.327
		c0,0.454,0.367,0.82,0.819,0.82h118.361c0.452,0,0.819-0.366,0.819-0.82V221.503z"/>
</g>
<path fill="#CDCDCD" d="M443.5,237.5c0,8.284-6.716,15-15,15h-80c-8.284,0-15-6.716-15-15v-95c0-8.284,6.716-15,15-15h80
	c8.284,0,15,6.716,15,15V237.5z"/>
<path fill="#E1E1E1" d="M441,236c0,8.284-6.716,15-15,15h-80c-8.284,0-15-6.716-15-15v-95c0-8.284,6.716-15,15-15h80
	c8.284,0,15,6.716,15,15V236z"/>
<rect x="259.594" y="244.703" transform="matrix(0.8481 -0.5299 0.5299 0.8481 -95.6292 184.8874)" fill="#E1E1E1" width="29.999" height="28.999"/>
<g>
	<g>
		<path fill="#CAA054" d="M389,319.333c-68.752,0-124.636-55.066-125.968-123.5c-0.016,0.832-0.032,1.664-0.032,2.5
			c0,69.587,56.412,126,126,126s126-56.412,126-126c0-0.836-0.016-1.668-0.031-2.5C513.636,264.267,457.752,319.333,389,319.333z"/>
	</g>
</g>
<path fill="#CAA054" d="M389,67.333c-69.588,0-126,56.412-126,126c0,69.587,56.412,126,126,126s126-56.412,126-126
	C515,123.746,458.588,67.333,389,67.333z M389,310.333c-61.856,0-112-50.145-112-112c0-61.856,50.144-112,112-112
	c61.855,0,112,50.144,112,112C501,260.188,450.855,310.333,389,310.333z"/>
<path fill="#EBC37D" d="M389,67.333c-69.588,0-126,56.412-126,126c0,69.587,56.412,126,126,126s126-56.412,126-126
	C515,123.746,458.588,67.333,389,67.333z M389,305.333c-61.856,0-112-50.145-112-112c0-61.856,50.144-112,112-112
	c61.855,0,112,50.144,112,112C501,255.188,450.855,305.333,389,305.333z"/>
<path fill="#469696" d="M263.138,297.166c12.178-7.609,15.947-23.543,8.338-35.721s-23.518-15.668-35.695-8.059L50.058,369.439
	c-12.178,7.608-16.013,23.438-8.403,35.614c7.609,12.178,23.517,15.669,35.694,8.06L263.138,297.166z"/>
<path fill="#4BAAAA" d="M271.476,261.445c-7.609-12.178-23.518-15.668-35.695-8.059L50.058,369.439
	c-4.802,3-8.3,7.281-10.317,12.109c0.013,4.61,1.272,9.277,3.914,13.505c7.609,12.178,23.517,15.669,35.694,8.06l185.789-115.947
	c4.781-2.987,8.259-7.261,10.269-12.084C275.402,270.422,274.137,265.704,271.476,261.445z"/>
<path fill="#69B9B9" d="M295.333,322c-12.63,0-24.593,1.616-35.3,4.496L226.667,315l10.347,20.693
	c-15.037,8.511-24.347,20.29-24.347,33.307c0,25.957,37.011,47,82.667,47C340.989,416,378,394.957,378,369S340.989,322,295.333,322z
	"/>
<g>
	<circle fill="#FAFAFA" cx="261.833" cy="369" r="10.167"/>
	<circle fill="#FAFAFA" cx="294.833" cy="369" r="10.167"/>
	<circle fill="#FAFAFA" cx="328.833" cy="369" r="10.167"/>
</g>
<g>
	<path fill="#CDCDCD" d="M373.701,391c-11.012,18.602-41.938,32-78.368,32c-45.655,0-82.667-21.043-82.667-47
		c0-1.179,0.102-2.343,0.252-3.499c3.153,24.32,38.833,43.499,82.414,43.499c31.672,0,59.17-10.129,73.045-24.998L373.701,391z"/>
</g>
</svg>
