<?xml version="1.0" encoding="utf-8"?>
<!-- Generator: Adobe Illustrator 15.0.0, SVG Export Plug-In . SVG Version: 6.00 Build 0)  -->
<!DOCTYPE svg PUBLIC "-//W3C//DTD SVG 1.1//EN" "http://www.w3.org/Graphics/SVG/1.1/DTD/svg11.dtd">
<svg version="1.1" id="Layer_1" xmlns="http://www.w3.org/2000/svg" xmlns:xlink="http://www.w3.org/1999/xlink" x="0px" y="0px"
	 width="367.316px" height="440px" viewBox="146.42 0 367.316 440" enable-background="new 146.42 0 367.316 440"
	 xml:space="preserve">
<path fill="#FFFFFF" d="M432.005,209.28v175.35H244.815V209.28c-7.291-3.249-12.922-6.858-16.676-10.756v227.544
	c0,7.725,6.28,13.933,13.933,13.933h192.676c7.725,0,13.933-6.28,13.933-13.933V198.523
	C444.927,202.422,439.296,206.031,432.005,209.28z M338.374,428.377c-7.724,0-13.933-6.28-13.933-13.933
	c0-7.724,6.28-13.933,13.933-13.933s13.933,6.281,13.933,13.933C352.379,422.169,346.099,428.377,338.374,428.377z"/>
<path fill="#FFFFFF" d="M346.676,130.376c0,0-4.043,1.371-8.302,1.371s-8.302-1.371-8.302-1.371s-49.884-15.449-94.136-29.093
	c-0.794,1.949-1.444,3.97-2.021,5.992c1.299,2.166,2.094,4.62,2.094,7.291c0,4.548-2.238,8.663-5.631,11.189
	c-0.145,1.372-0.289,2.671-0.361,4.043c-1.155,15.882,1.299,31.475,1.299,47.357c0,0.433,0,0.866,0,1.299
	c11.911,16.17,55.298,28.226,107.058,28.226c60.929,0,110.307-16.676,110.307-37.178V98.829
	C402.768,113.05,346.676,130.376,346.676,130.376z"/>
<path fill="#FFFFFF" d="M507.228,50.966c-6.931-2.093-160.552-49.667-160.552-49.667S342.633,0,338.374,0s-8.302,1.372-8.302,1.372
	S176.523,48.945,169.593,50.966c-6.931,2.021-6.353,5.848-6.353,5.848s-0.649,3.826,6.353,5.847
	c2.599,0.794,26.061,8.013,54.287,16.748c-5.053,5.125-9.457,10.901-12.995,17.398c-0.722,1.299-1.372,2.671-2.021,4.043
	c-6.569,1.155-11.551,6.858-11.551,13.716c0,4.259,1.877,8.085,4.909,10.612l0,0c-5.848,58.33-55.803,94.858-55.803,94.858
	s26.494,25.483,47.646,16.388c21.152-9.169,26.494-39.489,26.494-59.197c0-15.882-2.455-31.475-1.299-47.357
	c0.072-1.371,0.216-2.671,0.361-4.042c3.393-2.526,5.631-6.569,5.631-11.189c0-2.671-0.794-5.198-2.094-7.363
	c2.671-8.952,6.786-17.326,13.211-23.967l0,0c0.505-0.505,1.011-1.011,1.516-1.444c0.072-0.072,0.216-0.216,0.289-0.289
	c0.433-0.361,0.866-0.794,1.299-1.155c0.145-0.145,0.289-0.216,0.433-0.361c0.434-0.361,0.794-0.65,1.228-1.011
	c0.145-0.145,0.289-0.216,0.433-0.361c0.578-0.433,1.155-0.866,1.732-1.299c7.508-5.125,16.387-7.436,25.05-9.529
	c9.023-2.166,17.975-3.898,27.216-4.981c13.716-1.661,27.432-2.31,41.22-3.104c0.289,0,0.65-0.072,0.939-0.072
	c0.072,0,0.217,0,0.289-0.072c0.216,0,0.433-0.072,0.648-0.072c0.145,0,0.217-0.072,0.361-0.072c0.217,0,0.361-0.072,0.578-0.145
	c0.145,0,0.217-0.072,0.361-0.072c0.216-0.072,0.433-0.072,0.576-0.144c0.145-0.072,0.361-0.072,0.506-0.145
	s0.361-0.145,0.506-0.145c0.145-0.072,0.289-0.144,0.433-0.144c0.145-0.072,0.217-0.072,0.361-0.145
	c0.144-0.072,0.288-0.145,0.433-0.217c0.072-0.072,0.217-0.072,0.289-0.144c0.145-0.072,0.289-0.145,0.434-0.289
	c0.072,0,0.072-0.072,0.145-0.072c0.36-0.216,0.721-0.505,1.01-0.794c0,0,0,0,0.072,0c0.145-0.145,0.289-0.289,0.434-0.433
	c0.072-0.072,0.072-0.072,0.145-0.145c0.145-0.144,0.217-0.289,0.361-0.433c0.071-0.072,0.071-0.072,0.144-0.144
	c0.145-0.145,0.217-0.361,0.36-0.505l0,0c0.289-0.433,0.506-0.866,0.65-1.372c-4.548,18.192-32.341,13.283-72.334,24.833
	c-9.241,2.671-16.749,5.919-22.74,9.312c39.561,12.2,78.471,24.256,78.471,24.256s4.043,1.372,8.302,1.372s8.302-1.372,8.302-1.372
	s153.621-47.573,160.552-49.667c6.93-2.094,6.353-5.848,6.353-5.848S514.157,53.06,507.228,50.966z"/>
</svg>
