<?xml version="1.0" encoding="utf-8"?>
<!-- Generator: Adobe Illustrator 24.3.0, SVG Export Plug-In . SVG Version: 6.00 Build 0)  -->
<svg version="1.1" id="Layer_1" xmlns="http://www.w3.org/2000/svg" xmlns:xlink="http://www.w3.org/1999/xlink" x="0px" y="0px"
	 viewBox="0 0 367.3 440" style="enable-background:new 0 0 367.3 440;" xml:space="preserve">
<style type="text/css">
	.st0{fill:#FFFFFF;}
	.st1{fill:#69B9B9;}
	.st2{fill:#508C9B;}
</style>
<path class="st0" d="M288.3,46.5H95.7c-7.7,0-13.9,6.2-13.9,13.9v138.1V288v138.1c0,7.7,6.3,13.9,13.9,13.9h192.7
	c7.7,0,13.9-6.3,13.9-13.9V60.5C302.3,52.8,296.1,46.5,288.3,46.5z"/>
<path class="st1" d="M285.6,209.3v175.4H98.4V209.3c-7.3-3.2-12.9-6.9-16.7-10.8v227.5c0,7.7,6.3,13.9,13.9,13.9h192.7
	c7.7,0,13.9-6.3,13.9-13.9V198.5C298.5,202.4,292.9,206,285.6,209.3z M192,428.4c-7.7,0-13.9-6.3-13.9-13.9
	c0-7.7,6.3-13.9,13.9-13.9s13.9,6.3,13.9,13.9C206,422.2,199.7,428.4,192,428.4z"/>
<path class="st2" d="M200.3,130.4c0,0-4,1.4-8.3,1.4s-8.3-1.4-8.3-1.4s-49.9-15.4-94.1-29.1c-0.8,1.9-1.4,4-2,6
	c1.3,2.2,2.1,4.6,2.1,7.3c0,4.5-2.2,8.7-5.6,11.2c-0.1,1.4-0.3,2.7-0.4,4c-1.2,15.9,1.3,31.5,1.3,47.4c0,0.4,0,0.9,0,1.3
	c11.9,16.2,55.3,28.2,107.1,28.2c60.9,0,110.3-16.7,110.3-37.2V98.8C256.3,113.1,200.3,130.4,200.3,130.4z"/>
<path class="st2" d="M360.8,51c-6.9-2.1-160.6-49.7-160.6-49.7S196.2,0,192,0s-8.3,1.4-8.3,1.4S30.1,48.9,23.2,51
	c-6.9,2-6.4,5.8-6.4,5.8s-0.6,3.8,6.4,5.8c2.6,0.8,26.1,8,54.3,16.7c-5.1,5.1-9.5,10.9-13,17.4c-0.7,1.3-1.4,2.7-2,4
	c-6.6,1.2-11.6,6.9-11.6,13.7c0,4.3,1.9,8.1,4.9,10.6l0,0C50,183.5,0,220,0,220s26.5,25.5,47.6,16.4c21.2-9.2,26.5-39.5,26.5-59.2
	c0-15.9-2.5-31.5-1.3-47.4c0.1-1.4,0.2-2.7,0.4-4c3.4-2.5,5.6-6.6,5.6-11.2c0-2.7-0.8-5.2-2.1-7.4c2.7-9,6.8-17.3,13.2-24l0,0
	c0.5-0.5,1-1,1.5-1.4c0.1-0.1,0.2-0.2,0.3-0.3c0.4-0.4,0.9-0.8,1.3-1.2c0.1-0.1,0.3-0.2,0.4-0.4c0.4-0.4,0.8-0.7,1.2-1
	c0.1-0.1,0.3-0.2,0.4-0.4c0.6-0.4,1.2-0.9,1.7-1.3c7.5-5.1,16.4-7.4,25.1-9.5c9-2.2,18-3.9,27.2-5c13.7-1.7,27.4-2.3,41.2-3.1
	c0.3,0,0.6-0.1,0.9-0.1c0.1,0,0.2,0,0.3-0.1c0.2,0,0.4-0.1,0.6-0.1c0.1,0,0.2-0.1,0.4-0.1c0.2,0,0.4-0.1,0.6-0.1
	c0.1,0,0.2-0.1,0.4-0.1c0.2-0.1,0.4-0.1,0.6-0.1c0.1-0.1,0.4-0.1,0.5-0.1s0.4-0.1,0.5-0.1c0.1-0.1,0.3-0.1,0.4-0.1
	c0.1-0.1,0.2-0.1,0.4-0.1c0.1-0.1,0.3-0.1,0.4-0.2c0.1-0.1,0.2-0.1,0.3-0.1c0.1-0.1,0.3-0.1,0.4-0.3c0.1,0,0.1-0.1,0.1-0.1
	c0.4-0.2,0.7-0.5,1-0.8c0,0,0,0,0.1,0c0.1-0.1,0.3-0.3,0.4-0.4c0.1-0.1,0.1-0.1,0.1-0.1c0.1-0.1,0.2-0.3,0.4-0.4
	c0.1-0.1,0.1-0.1,0.1-0.1c0.1-0.1,0.2-0.4,0.4-0.5l0,0c0.3-0.4,0.5-0.9,0.6-1.4c-4.5,18.2-32.3,13.3-72.3,24.8
	c-9.2,2.7-16.7,5.9-22.7,9.3c39.6,12.2,78.5,24.3,78.5,24.3s4,1.4,8.3,1.4s8.3-1.4,8.3-1.4S354,64.8,361,62.7
	c6.9-2.1,6.4-5.8,6.4-5.8S367.7,53.1,360.8,51z"/>
</svg>
