<?xml version="1.0" encoding="utf-8"?>
<!-- Generator: Adobe Illustrator 24.3.0, SVG Export Plug-In . SVG Version: 6.00 Build 0)  -->
<svg version="1.1" id="Layer_1" xmlns="http://www.w3.org/2000/svg" xmlns:xlink="http://www.w3.org/1999/xlink" x="0px" y="0px"
	 viewBox="0 0 508.6 609.5" style="enable-background:new 0 0 508.6 609.5;" xml:space="preserve">
<style type="text/css">
	.st0{fill:#41907F;}
	.st1{fill:#233B37;}
</style>
<path class="st0" d="M395.6,289.9v242.9H136.3V289.9c-10.1-4.5-17.9-9.5-23.1-14.9v315.2c0,10.7,8.7,19.3,19.3,19.3h266.9
	c10.7,0,19.3-8.7,19.3-19.3V275C413.5,280.4,405.7,285.4,395.6,289.9z M265.9,593.4c-10.7,0-19.3-8.7-19.3-19.3
	c0-10.7,8.7-19.3,19.3-19.3s19.3,8.7,19.3,19.3C285.3,584.8,276.6,593.4,265.9,593.4z"/>
<path class="st1" d="M277.4,180.6c0,0-5.6,1.9-11.5,1.9s-11.5-1.9-11.5-1.9s-69.1-21.4-130.4-40.3c-1.1,2.7-2,5.5-2.8,8.3
	c1.8,3,2.9,6.4,2.9,10.1c0,6.3-3.1,12-7.8,15.5c-0.2,1.9-0.4,3.7-0.5,5.6c-1.6,22,1.8,43.6,1.8,65.6c0,0.6,0,1.2,0,1.8
	c16.5,22.4,76.6,39.1,148.3,39.1c84.4,0,152.8-23.1,152.8-51.5v-97.9C355.1,156.6,277.4,180.6,277.4,180.6z"/>
<path class="st1" d="M499.8,70.6c-9.6-2.9-222.4-68.8-222.4-68.8S271.8,0,265.9,0s-11.5,1.9-11.5,1.9S41.7,67.8,32.1,70.6
	s-8.8,8.1-8.8,8.1s-0.9,5.3,8.8,8.1c3.6,1.1,36.1,11.1,75.2,23.2c-7,7.1-13.1,15.1-18,24.1c-1,1.8-1.9,3.7-2.8,5.6
	c-9.1,1.6-16,9.5-16,19c0,5.9,2.6,11.2,6.8,14.7c0,0,0,0,0,0C69.2,254.2,0,304.8,0,304.8s36.7,35.3,66,22.7
	c29.3-12.7,36.7-54.7,36.7-82c0-22-3.4-43.6-1.8-65.6c0.1-1.9,0.3-3.7,0.5-5.6c4.7-3.5,7.8-9.1,7.8-15.5c0-3.7-1.1-7.2-2.9-10.2
	c3.7-12.4,9.4-24,18.3-33.2c0,0,0,0,0,0c0.7-0.7,1.4-1.4,2.1-2c0.1-0.1,0.3-0.3,0.4-0.4c0.6-0.5,1.2-1.1,1.8-1.6
	c0.2-0.2,0.4-0.3,0.6-0.5c0.6-0.5,1.1-0.9,1.7-1.4c0.2-0.2,0.4-0.3,0.6-0.5c0.8-0.6,1.6-1.2,2.4-1.8c10.4-7.1,22.7-10.3,34.7-13.2
	c12.5-3,24.9-5.4,37.7-6.9c19-2.3,38-3.2,57.1-4.3c0.4,0,0.9-0.1,1.3-0.1c0.1,0,0.3,0,0.4-0.1c0.3,0,0.6-0.1,0.9-0.1
	c0.2,0,0.3-0.1,0.5-0.1c0.3,0,0.5-0.1,0.8-0.2c0.2,0,0.3-0.1,0.5-0.1c0.3-0.1,0.6-0.1,0.8-0.2c0.2-0.1,0.5-0.1,0.7-0.2
	c0.2-0.1,0.5-0.2,0.7-0.2c0.2-0.1,0.4-0.2,0.6-0.2c0.2-0.1,0.3-0.1,0.5-0.2c0.2-0.1,0.4-0.2,0.6-0.3c0.1-0.1,0.3-0.1,0.4-0.2
	c0.2-0.1,0.4-0.2,0.6-0.4c0.1,0,0.1-0.1,0.2-0.1c0.5-0.3,1-0.7,1.4-1.1c0,0,0,0,0.1,0c0.2-0.2,0.4-0.4,0.6-0.6
	c0.1-0.1,0.1-0.1,0.2-0.2c0.2-0.2,0.3-0.4,0.5-0.6c0.1-0.1,0.1-0.1,0.2-0.2c0.2-0.2,0.3-0.5,0.5-0.7c0,0,0,0,0,0
	c0.4-0.6,0.7-1.2,0.9-1.9c-6.3,25.2-44.8,18.4-100.2,34.4c-12.8,3.7-23.2,8.2-31.5,12.9c54.8,16.9,108.7,33.6,108.7,33.6
	s5.6,1.9,11.5,1.9s11.5-1.9,11.5-1.9s212.8-65.9,222.4-68.8s8.8-8.1,8.8-8.1S509.4,73.5,499.8,70.6z"/>
</svg>
