<?xml version="1.0" encoding="utf-8"?>
<!-- Generator: Adobe Illustrator 25.1.0, SVG Export Plug-In . SVG Version: 6.00 Build 0)  -->
<svg version="1.1" id="Laag_1" xmlns="http://www.w3.org/2000/svg" xmlns:xlink="http://www.w3.org/1999/xlink" x="0px" y="0px"
	 viewBox="0 0 264 280" style="enable-background:new 0 0 264 280;" xml:space="preserve">
<style type="text/css">
	.st0{fill-rule:evenodd;clip-rule:evenodd;fill:#E6E6E6;}
	.st1{filter:url(#Adobe_OpacityMaskFilter);}
	.st2{fill-rule:evenodd;clip-rule:evenodd;fill:#FFFFFF;}
	.st3{mask:url(#mask-2_1_);}
	.st4{fill-rule:evenodd;clip-rule:evenodd;fill:#69B9B9;}
	.st5{filter:url(#Adobe_OpacityMaskFilter_1_);}
	.st6{mask:url(#mask-4_1_);}
	.st7{fill-rule:evenodd;clip-rule:evenodd;fill:#D0C6AC;}
	.st8{filter:url(#Adobe_OpacityMaskFilter_2_);}
	.st9{mask:url(#mask-6_1_);}
	.st10{fill-rule:evenodd;clip-rule:evenodd;fill:#FFDBB4;}
	.st11{filter:url(#Adobe_OpacityMaskFilter_3_);}
	.st12{mask:url(#mask-6_2_);fill-rule:evenodd;clip-rule:evenodd;fill-opacity:0.1;}
	.st13{filter:url(#Adobe_OpacityMaskFilter_4_);}
	.st14{mask:url(#react-mask-2_1_);}
	.st15{fill-rule:evenodd;clip-rule:evenodd;fill:#262E33;}
	.st16{fill-rule:evenodd;clip-rule:evenodd;fill:#3A4C5A;}
	.st17{fill-rule:evenodd;clip-rule:evenodd;fill:#2F4351;}
	.st18{fill-rule:evenodd;clip-rule:evenodd;fill:#F2F2F2;}
	.st19{fill-opacity:0.6;}
	.st20{fill-rule:evenodd;clip-rule:evenodd;fill-opacity:0.16;}
	.st21{fill-rule:evenodd;clip-rule:evenodd;fill-opacity:0.6;}
	.st22{filter:url(#Adobe_OpacityMaskFilter_5_);}
	.st23{mask:url(#react-mask-5_1_);}
	.st24{fill-rule:evenodd;clip-rule:evenodd;fill:#28354B;}
	.st25{filter:url(#Adobe_OpacityMaskFilter_6_);}
	.st26{mask:url(#react-mask-4_1_);}
	.st27{fill-rule:evenodd;clip-rule:evenodd;fill:#4A312C;}
	.st28{fill:#252C2F;}
</style>
<desc>Created with getavataaars.com</desc>
<g id="Avataaar_1_">
	<g id="Avataaar_x2F_Circle" transform="translate(-825.000000, -1100.000000)">
		<g transform="translate(825.000000, 1100.000000)">
			<g id="Circle" transform="translate(12.000000, 40.000000)">
				<g id="Circle-Background">
					<circle id="path-1_1_" class="st0" cx="120" cy="120" r="120"/>
				</g>
				<defs>
					<filter id="Adobe_OpacityMaskFilter" filterUnits="userSpaceOnUse" x="0" y="0" width="240" height="240">
						<feColorMatrix  type="matrix" values="1 0 0 0 0  0 1 0 0 0  0 0 1 0 0  0 0 0 1 0"/>
					</filter>
				</defs>
				<mask maskUnits="userSpaceOnUse" x="0" y="0" width="240" height="240" id="mask-2_1_">
					<g class="st1">
						<circle id="path-1_2_" class="st2" cx="120" cy="120" r="120"/>
					</g>
				</mask>
				<g id="Color_x2F_Palette_x2F_Blue-01" class="st3">
					<rect id="_xD83D__xDD8D_Color" y="0" class="st4" width="240" height="240"/>
				</g>
			</g>
			<g id="Mask">
			</g>
			<defs>
				<filter id="Adobe_OpacityMaskFilter_1_" filterUnits="userSpaceOnUse" x="-1" y="0" width="265" height="280">
					<feColorMatrix  type="matrix" values="1 0 0 0 0  0 1 0 0 0  0 0 1 0 0  0 0 0 1 0"/>
				</filter>
			</defs>
			<mask maskUnits="userSpaceOnUse" x="-1" y="0" width="265" height="280" id="mask-4_1_">
				<g class="st5">
					<path id="path-3_1_" class="st2" d="M12,160c0,66.3,53.7,120,120,120s120-53.7,120-120h12V0H0v160H12z"/>
				</g>
			</mask>
			<g id="Avataaar" class="st6">
				<g id="Body" transform="translate(32.000000, 36.000000)">
					<g>
						<path id="path-5_1_" class="st7" d="M124,144.6V163h4l0,0c39.8,0,72,32.2,72,72v9H0v-9c0-39.8,32.2-72,72-72l0,0h4v-18.4
							c-17.2-8.2-29.6-24.9-31.7-44.7C38.5,99.1,34,94.1,34,88V74c0-5.9,4.3-10.9,10-11.8V56l0,0c0-30.9,25.1-56,56-56l0,0l0,0
							c30.9,0,56,25.1,56,56v6.2c5.7,1,10,5.9,10,11.8v14c0,6.1-4.5,11.1-10.3,11.9C153.6,119.7,141.2,136.4,124,144.6z"/>
					</g>
					<defs>
						<filter id="Adobe_OpacityMaskFilter_2_" filterUnits="userSpaceOnUse" x="-32" y="0" width="264" height="244">
							<feColorMatrix  type="matrix" values="1 0 0 0 0  0 1 0 0 0  0 0 1 0 0  0 0 0 1 0"/>
						</filter>
					</defs>
					<mask maskUnits="userSpaceOnUse" x="-32" y="0" width="264" height="244" id="mask-6_1_">
						<g class="st8">
							<path id="path-5_2_" class="st2" d="M124,144.6V163h4l0,0c39.8,0,72,32.2,72,72v9H0v-9c0-39.8,32.2-72,72-72l0,0h4v-18.4
								c-17.2-8.2-29.6-24.9-31.7-44.7C38.5,99.1,34,94.1,34,88V74c0-5.9,4.3-10.9,10-11.8V56l0,0c0-30.9,25.1-56,56-56l0,0l0,0
								c30.9,0,56,25.1,56,56v6.2c5.7,1,10,5.9,10,11.8v14c0,6.1-4.5,11.1-10.3,11.9C153.6,119.7,141.2,136.4,124,144.6z"/>
						</g>
					</mask>
					<g id="Skin_x2F__xD83D__xDC76__xD83C__xDFFD_-03-Brown" class="st9">
						<g id="Color" transform="translate(-32.000000, 0.000000)">
							<rect y="0" class="st10" width="264" height="244"/>
						</g>
					</g>
					<defs>
						<filter id="Adobe_OpacityMaskFilter_3_" filterUnits="userSpaceOnUse" x="44" y="79" width="112" height="79">
							<feColorMatrix  type="matrix" values="1 0 0 0 0  0 1 0 0 0  0 0 1 0 0  0 0 0 1 0"/>
						</filter>
					</defs>
					<mask maskUnits="userSpaceOnUse" x="44" y="79" width="112" height="79" id="mask-6_2_">
						<g class="st11">
							<path id="path-5_3_" class="st2" d="M124,144.6V163h4l0,0c39.8,0,72,32.2,72,72v9H0v-9c0-39.8,32.2-72,72-72l0,0h4v-18.4
								c-17.2-8.2-29.6-24.9-31.7-44.7C38.5,99.1,34,94.1,34,88V74c0-5.9,4.3-10.9,10-11.8V56l0,0c0-30.9,25.1-56,56-56l0,0l0,0
								c30.9,0,56,25.1,56,56v6.2c5.7,1,10,5.9,10,11.8v14c0,6.1-4.5,11.1-10.3,11.9C153.6,119.7,141.2,136.4,124,144.6z"/>
						</g>
					</mask>
					<path id="Neck-Shadow" class="st12" d="M156,79v23c0,30.9-25.1,56-56,56s-56-25.1-56-56V79v15c0,30.9,25.1,56,56,56
						s56-25.1,56-56V79z"/>
				</g>
				<g id="Clothing_x2F_Blazer-_x2B_-Sweater" transform="translate(0.000000, 170.000000)">
					<g id="Clothes">
						<path id="react-path-1_1_" class="st0" d="M105.2,29.1H104l0,0c-39.8,0-72,32.2-72,72v8.9h200v-8.9c0-39.8-32.2-72-72-72l0,0
							h-1.2c0.1,1,0.2,2,0.2,3c0,13.8-12.1,25-27,25s-27-11.2-27-25C105,31,105.1,30,105.2,29.1z"/>
					</g>
					<defs>
						<filter id="Adobe_OpacityMaskFilter_4_" filterUnits="userSpaceOnUse" x="0" y="0" width="264" height="110">
							<feColorMatrix  type="matrix" values="1 0 0 0 0  0 1 0 0 0  0 0 1 0 0  0 0 0 1 0"/>
						</filter>
					</defs>
					<mask maskUnits="userSpaceOnUse" x="0" y="0" width="264" height="110" id="react-mask-2_1_">
						<g class="st13">
							<path id="react-path-1_2_" class="st2" d="M105.2,29.1H104l0,0c-39.8,0-72,32.2-72,72v8.9h200v-8.9c0-39.8-32.2-72-72-72l0,0
								h-1.2c0.1,1,0.2,2,0.2,3c0,13.8-12.1,25-27,25s-27-11.2-27-25C105,31,105.1,30,105.2,29.1z"/>
						</g>
					</mask>
					<g id="Color_x2F_Palette_x2F_Black" class="st14">
						<rect id="_xD83D__xDD8D_Color_1_" y="0" class="st15" width="264" height="110"/>
					</g>
					<g id="Blazer" transform="translate(32.000000, 28.000000)">
						<path id="Saco" class="st16" d="M68.8,1.1C30.5,2.8,0,34.4,0,73.1V82h69.4C66,69.9,64,55.7,64,40.5
							C64,26.2,65.7,12.7,68.8,1.1z M131.6,82H200v-8.9c0-38.3-30-69.7-67.8-71.9c3,11.6,4.8,25,4.8,39.3
							C137,55.7,135,69.9,131.6,82z"/>
						<path id="Pocket-hanky" class="st0" d="M149,58l9.6-7.2l0,0c1.4-1.1,3.4-1.1,4.9,0L170,56L149,58z"/>
						<path id="Wing" class="st17" d="M69,0c-4,19.3-2.3,46.7,5,82H58L44,46l6-9l-6-6L63,1C65,0.4,67,0,69,0z"/>
						<path id="Wing_1_" class="st17" d="M131,0c4,19.3,2.3,46.7-5,82h16l14-36l-6-9l6-6L137,1C135,0.4,133,0,131,0z"/>
					</g>
					<path id="Collar" class="st18" d="M156,21.5c6.8,4.6,11,11.1,11,18.3c0,7.4-4.4,14.1-11.5,18.7l-5.9-4.7l-4.6,0.3l1-3.2
						l-0.1-0.1c6.1-3.1,10.1-8.3,10.1-14.1V21.5z M108,21.5c-6.8,4.6-11,11.1-11,18.3c0,7.4,4.4,14.1,11.5,18.7l5.9-4.7l4.6,0.3
						l-1-3.2l0.1-0.1C112,47.9,108,42.7,108,36.9V21.5z"/>
				</g>
				<g id="Face" transform="translate(76.000000, 82.000000)">
					<g id="Mouth_x2F_Twinkle" transform="translate(2.000000, 52.000000)">
						<path id="Mouth" class="st19" d="M40,16c0,5.4,6.2,9,14,9s14-3.6,14-9c0-1.1-0.9-2-2-2c-1.3,0-1.9,0.9-2,2
							c-1.2,2.9-4.3,4.7-10,5c-5.7-0.3-8.8-2.1-10-5c-0.1-1.1-0.7-2-2-2C40.9,14,40,14.9,40,16z"/>
					</g>
					<g id="Nose_x2F_Default" transform="translate(28.000000, 40.000000)">
						<path id="Nose" class="st20" d="M16,8c0,4.4,5.4,8,12,8l0,0c6.6,0,12-3.6,12-8"/>
					</g>
					<g id="Eyes_x2F_Default-_xD83D__xDE00_" transform="translate(0.000000, 8.000000)">
						<circle id="Eye" class="st21" cx="30" cy="22" r="6"/>
						<circle id="Eye_1_" class="st21" cx="82" cy="22" r="6"/>
					</g>
					<g id="Eyebrow_x2F_Natural_x2F_Default-Natural">
						<path id="Eyebrow" class="st21" d="M26.5,6.1c-5.8,0.3-15.2,4.5-15,10.3c0,0.2,0.3,0.3,0.4,0.1c2.8-3,22.3-5.9,29.2-4.4
							c0.6,0.1,1.1-0.5,0.7-0.9C38.5,7.5,31.7,5.9,26.5,6.1"/>
						<path id="Eyebrow_1_" class="st21" d="M86.5,6.1c5.8,0.3,15.2,4.5,15,10.3c0,0.2-0.3,0.3-0.4,0.1c-2.8-3-22.3-5.9-29.2-4.4
							c-0.6,0.1-1.1-0.5-0.7-0.9C74.5,7.5,81.3,5.9,86.5,6.1"/>
					</g>
				</g>
				<g id="Top">
					<g id="Mask_1_">
					</g>
					<defs>
						<filter id="Adobe_OpacityMaskFilter_5_" filterUnits="userSpaceOnUse" x="-1" y="0" width="264" height="280">
							<feColorMatrix  type="matrix" values="1 0 0 0 0  0 1 0 0 0  0 0 1 0 0  0 0 0 1 0"/>
						</filter>
					</defs>
					<mask maskUnits="userSpaceOnUse" x="-1" y="0" width="264" height="280" id="react-mask-5_1_">
						<g class="st22">
							<rect id="react-path-7_1_" y="0" class="st2" width="264" height="280"/>
						</g>
					</mask>
					<g id="Top_x2F_Short-Hair_x2F_Short-Round" class="st23">
						<g transform="translate(-1.000000, 0.000000)">
							<g id="Short-Hair">
								<path id="react-path-6_1_" class="st24" d="M167.3,35c-20.2-11.7-40.2-9.8-55.3-6S88,43.7,80.4,59.6
									c-3.8,7.9-6,17.1-6.3,25.8c-0.1,3.4,0.3,6.9,1.2,10.2c0.3,1.2,2.2,5.4,2.7,2c0.2-1.1-0.4-2.7-0.5-3.9
									c-0.1-1.6,0-3.2,0.1-4.7c0.2-2.9,0.7-5.8,1.7-8.6c1.3-4,3-8.3,5.6-11.7c6.4-8.3,17.5-8.8,26.3-13.4
									c-0.8,1.4-3.7,3.7-2.7,5.3c0.7,1.1,3.4,0.8,4.6,0.7c3.3-0.1,6.7-0.7,10-1.1c5.2-0.7,10.1-2.3,15-4.1c4-1.5,8.6-2.9,11.6-6.1
									c4.9,5,11.1,9.8,17.4,13c5.6,2.9,14.7,4.3,18.1,10.2c4.1,6.9,2.2,15.4,3.4,22.9c0.5,2.8,1.5,2.8,2.1,0.2
									c1-4.3,1.5-8.8,1.2-13.3C191.2,73.1,187.5,46.7,167.3,35z"/>
							</g>
							<defs>
								<filter id="Adobe_OpacityMaskFilter_6_" filterUnits="userSpaceOnUse" x="0" y="0" width="264" height="280">
									<feColorMatrix  type="matrix" values="1 0 0 0 0  0 1 0 0 0  0 0 1 0 0  0 0 0 1 0"/>
								</filter>
							</defs>
							<mask maskUnits="userSpaceOnUse" x="0" y="0" width="264" height="280" id="react-mask-4_1_">
								<g class="st25">
									<path id="react-path-6_2_" class="st2" d="M167.3,35c-20.2-11.7-40.2-9.8-55.3-6S88,43.7,80.4,59.6
										c-3.8,7.9-6,17.1-6.3,25.8c-0.1,3.4,0.3,6.9,1.2,10.2c0.3,1.2,2.2,5.4,2.7,2c0.2-1.1-0.4-2.7-0.5-3.9
										c-0.1-1.6,0-3.2,0.1-4.7c0.2-2.9,0.7-5.8,1.7-8.6c1.3-4,3-8.3,5.6-11.7c6.4-8.3,17.5-8.8,26.3-13.4
										c-0.8,1.4-3.7,3.7-2.7,5.3c0.7,1.1,3.4,0.8,4.6,0.7c3.3-0.1,6.7-0.7,10-1.1c5.2-0.7,10.1-2.3,15-4.1
										c4-1.5,8.6-2.9,11.6-6.1c4.9,5,11.1,9.8,17.4,13c5.6,2.9,14.7,4.3,18.1,10.2c4.1,6.9,2.2,15.4,3.4,22.9
										c0.5,2.8,1.5,2.8,2.1,0.2c1-4.3,1.5-8.8,1.2-13.3C191.2,73.1,187.5,46.7,167.3,35z"/>
								</g>
							</mask>
							<g id="Skin_x2F__xD83D__xDC76__xD83C__xDFFD_-03-Brown_1_" class="st26">
								<g id="Color_1_" transform="translate(0.000000, 0.000000) ">
									<rect y="0" class="st27" width="264" height="280"/>
								</g>
							</g>
							<g id="Top_x2F__x5F_Resources_x2F_Prescription-02" transform="translate(62.000000, 85.000000)">
								<g id="Wayfarers" transform="translate(6.000000, 7.000000)">
									<path id="Left" class="st28" d="M34,41h-2.8C17.3,41,9,33.3,9,20.5C9,10.1,10.8,0,32.5,0h2.9C57.2,0,59,10.1,59,20.5
										C59,32.6,48.7,41,34,41z M32.4,6C13,6,13,12.8,13,21.5C13,28.6,16.1,37,31,37h3c12.4,0,21-6.4,21-15.5C55,12.8,55,6,35.6,6
										H32.4z"/>
									<path id="Right" class="st28" d="M96,41h-2.8C79.3,41,71,33.3,71,20.5C71,10.1,72.8,0,94.5,0h2.9
										C119.2,0,121,10.1,121,20.5C121,32.6,110.7,41,96,41z M94.4,6C75,6,75,12.8,75,21.5C75,28.6,78.1,37,93,37h3
										c12.4,0,21-6.4,21-15.5C117,12.8,117,6,97.6,6H94.4z"/>
									<path id="Stuff" class="st28" d="M3,5.8C3.6,5.1,11.2,0,32.5,0c17.9,0,21.6,1.9,27.4,4.7l0.4,0.2c0.4,0.1,2.4,0.8,4.8,0.9
										c2.2-0.1,4-0.7,4.6-0.9C76.2,1.7,82.6,0,97.5,0c21.3,0,28.9,5.1,29.5,5.8c1.6,0,3,1.3,3,2.9v2.9c0,1.6-1.3,2.9-3,2.9
										c0,0-6.9,0-6.9,2.9s-2-4.2-2-5.8V8.7c-3.6-1.4-10.1-3.9-20.7-3.9C85.7,4.8,79.8,6.9,74.7,9l0.1,0.1l0,2l-2.2,5.3l-2.7-1.1
										c-0.2-0.1-0.8-0.3-1.5-0.5c-2-0.5-4.1-0.7-6-0.3c-0.7,0.1-1.3,0.3-1.9,0.6l-2.6,1.3l-2.6-5.2l0.1-2.3l0.1-0.2
										c-4.4-2-8.4-4.1-22.8-4.1c-10.6,0-17.1,2.6-20.7,3.9v2.8c0,1.6-3,8.7-3,5.8S3,14.4,3,14.4c-1.6,0-3-1.3-3-2.9V8.7
										C0,7.1,1.3,5.8,3,5.8z"/>
								</g>
							</g>
						</g>
					</g>
				</g>
			</g>
		</g>
	</g>
</g>
</svg>
