<?xml version="1.0" encoding="utf-8"?>
<!-- Generator: Adobe Illustrator 15.0.0, SVG Export Plug-In . SVG Version: 6.00 Build 0)  -->
<!DOCTYPE svg PUBLIC "-//W3C//DTD SVG 1.1//EN" "http://www.w3.org/Graphics/SVG/1.1/DTD/svg11.dtd">
<svg version="1.1" id="Layer_1" xmlns="http://www.w3.org/2000/svg" xmlns:xlink="http://www.w3.org/1999/xlink" x="0px" y="0px"
	 width="102.562px" height="50px" viewBox="-43.281 -17 102.562 50" enable-background="new -43.281 -17 102.562 50"
	 xml:space="preserve">
<title>VDABlogo</title>
<g>
	<polygon fill="#004678" points="-43.281,-6.574 -36.16,-6.574 -29.169,13.707 -22.185,-6.574 -15.064,-6.574 -25.104,22.573 
		-33.263,22.573 	"/>
	<path fill="#004678" d="M-8.788-0.205v16.431h2.834c3.535,0,5.989-1.195,7.585-2.806c1.424-1.46,2.233-3.406,2.255-5.445
		C3.835,5.799,2.854,3.752,1.188,2.356c-1.746-1.523-4.294-2.562-7.479-2.562H-8.788z M-15.558,22.565v-29.14h10.634
		c4.759,0,8.63,1.646,11.328,4.272c2.727,2.705,4.236,6.404,4.179,10.255c0.021,2.433-0.543,4.83-1.646,6.999
		c-1.138,2.254-2.884,4.136-5.038,5.438c-2.604,1.495-5.561,2.247-8.559,2.189L-15.558,22.565z"/>
	<path fill="#004678" d="M19.607,11.03h7.528L23.371,0.067L19.607,11.03z M29.34,17.378H17.432l-1.803,5.188H8.486L18.505-6.566
		h9.861l10.033,29.132h-7.257L29.34,17.378z"/>
	<path fill="#004678" d="M44.511,10.45v7.321c2.806,0,4.938-0.064,6.34-0.552c1.403-0.486,2.147-1.352,2.147-3.005
		c0-1.66-0.673-2.569-1.976-3.099c-1.302-0.522-3.191-0.666-5.61-0.666H44.511z M44.511-1.779v6.77c2.548,0,4.308,0,5.453-0.437
		c1.159-0.437,1.589-1.195,1.589-2.77c0-1.646-0.501-2.548-1.632-3.026c-1.146-0.487-2.862-0.537-5.324-0.537H44.511z
		 M37.727,22.565v-29.14h8.659c1.789-0.028,3.563,0.157,5.31,0.559c1.703,0.437,3.292,1.123,4.408,2.269
		c1.103,1.145,1.832,2.748,1.832,4.944c0.029,1.303-0.314,2.591-0.973,3.707c-0.572,0.923-1.317,1.718-2.204,2.348
		c3.034,1.23,4.522,3.377,4.522,6.855c0,2.626-0.83,4.443-2.204,5.682c-1.389,1.231-3.363,1.968-5.64,2.34
		c-2.49,0.358-4.98,0.509-7.471,0.466L37.727,22.565z"/>
	<rect x="-14.828" y="28.849" fill="#004678" width="50.365" height="4.151"/>
	<rect x="-14.828" y="-17" fill="#004678" width="50.365" height="4.15"/>
</g>
</svg>
